<svg width="512" height="256" viewBox="0 0 512 256" fill="none" xmlns="http://www.w3.org/2000/svg">
  <rect width="512" height="256" rx="32" fill="#1149D8"/>
  <path d="M132 78H188C206 78 220 92 220 110C220 122 214 131 205 136C219 141 228 152 228 167C228 188 211 202 188 202H132V78Z" fill="#FFFFFF"/>
  <path d="M160 99V117H184C190 117 194 113 194 108C194 103 190 99 184 99H160Z" fill="#1149D8"/>
  <path d="M160 139V178H188C197 178 202 172 202 159C202 145 195 139 185 139H160Z" fill="#1149D8"/>
  <path d="M248 78H292V202H248V78Z" fill="#FFFFFF"/>
  <path d="M228 119H316L310 137H222L228 119Z" fill="#FFFFFF"/>
  <text x="350" y="179" text-anchor="middle" font-family="Arial, Helvetica, sans-serif" font-size="66" font-weight="700" fill="#FFFFFF">BlueFit</text>
</svg>
